<svg width="24" height="37" viewBox="0 0 24 37" fill="none" xmlns="http://www.w3.org/2000/svg">
<path d="M14.9003 6.01923C16.0715 4.83387 18.1311 3.48241 21.3693 3.61834C21.8307 5.91908 21.0012 8.32985 19.195 9.8522C17.8178 11.0131 16.9079 11.0983 15.7559 11.2064C15.2734 11.2516 14.7264 11.3029 14.1142 11.4399C13.8161 11.5066 13.6286 11.8024 13.6953 12.1005C13.7529 12.358 13.9813 12.533 14.2345 12.5329C14.2745 12.5329 14.3151 12.5286 14.3559 12.5194C14.8994 12.3978 15.3873 12.352 15.8591 12.3078C17.0968 12.1917 18.2659 12.0821 19.9079 10.6981C22.141 8.81581 23.0992 5.77408 22.3487 2.94903C22.2885 2.72202 22.0913 2.55784 21.8572 2.53955C18.8192 2.30243 16.0691 3.26211 14.1133 5.24165C13.8986 5.459 13.9007 5.80919 14.1179 6.02388C14.3354 6.23872 14.6855 6.23659 14.9003 6.01923Z" fill="#777777"/>
<path d="M1.5541 5.65998C1.05833 4.21272 0.97337 2.67429 1.30423 1.18942C3.95175 0.727796 7.85641 2.29572 7.89704 2.31224C8.1363 2.40959 8.41103 2.32847 8.55905 2.11672L8.87833 1.65982C9.2114 1.91242 9.6124 2.23443 9.82156 2.41077C11.7571 4.04227 13.4552 7.20533 12.4226 11.0766C11.6066 9.22101 10.4299 6.79829 7.13974 5.18715C6.86545 5.05277 6.53415 5.16627 6.3997 5.44064C6.26532 5.715 6.37883 6.04637 6.65327 6.18068C9.61314 7.63008 10.645 9.77888 11.4275 11.5616C10.2434 11.1744 9.2825 11.0834 8.40904 11.0015C6.94503 10.8642 5.78866 10.7558 4.03421 9.27699C3.31482 8.67059 2.71085 7.95577 2.2392 7.15238C2.08447 6.88886 1.74557 6.8008 1.48212 6.95538C1.21867 7.11004 1.13047 7.44901 1.2852 7.71246C1.82058 8.62442 2.5056 9.43534 3.32124 10.1229C5.34053 11.825 6.78093 11.96 8.30578 12.103C9.36754 12.2026 10.4634 12.3057 11.9431 12.9369V18.5549C11.9431 18.8604 12.1907 19.1081 12.4962 19.1081C12.8017 19.1081 13.0494 18.8604 13.0494 18.5549V12.6812C13.8857 10.5965 14.0572 8.42492 13.5421 6.39323C13.065 4.51215 11.997 2.79739 10.5347 1.56482C10.2614 1.33442 9.41599 0.65478 9.04199 0.417368C8.79211 0.258725 8.46163 0.324881 8.29207 0.56753L7.89955 1.12931C6.70364 0.692763 3.21171 -0.441269 0.715086 0.183865C0.519861 0.232763 0.366528 0.383884 0.314827 0.578445C-0.162579 2.37567 -0.0959793 4.25682 0.507471 6.01849C0.606448 6.30746 0.920858 6.46168 1.21005 6.36255C1.49908 6.26358 1.65308 5.94902 1.5541 5.65998Z" fill="#777777"/>
<path d="M14.5517 9.88398C14.6922 9.88398 14.8328 9.8308 14.9406 9.72423C16.7108 7.97413 19.0476 6.58499 19.0709 6.57112C19.3338 6.41572 19.4212 6.07653 19.2658 5.81352C19.1104 5.55052 18.7712 5.4632 18.5083 5.61852C18.4081 5.67767 16.0328 7.08872 14.1627 8.93742C13.9455 9.15219 13.9434 9.50245 14.1582 9.71965C14.2665 9.82918 14.4091 9.88398 14.5517 9.88398Z" fill="#777777"/>
<path d="M20.1293 21.8741C20.1293 20.593 19.0871 19.5509 17.8061 19.5509H7.18613C5.90518 19.5509 4.86298 20.593 4.86298 21.8741C4.86298 23.155 5.90511 24.1972 7.18613 24.1972H17.8061C19.087 24.1971 20.1293 23.155 20.1293 21.8741ZM17.8061 23.0908H7.18613C6.5152 23.0908 5.96928 22.545 5.96928 21.874C5.96928 21.203 6.51512 20.6571 7.18613 20.6571H17.8061C18.477 20.6571 19.023 21.203 19.023 21.874C19.023 22.545 18.477 23.0908 17.8061 23.0908Z" fill="#777777"/>
<path d="M22.668 28.6963C22.4742 28.4601 22.1256 28.4258 21.8895 28.6196C21.6533 28.8133 21.619 29.1619 21.8128 29.3981C22.7977 30.5983 22.9971 32.2157 22.3333 33.6189C21.6696 35.022 20.2931 35.8937 18.7408 35.8937H6.25139C4.69918 35.8937 3.32257 35.0221 2.65894 33.619C1.99516 32.2157 2.19459 30.5983 3.17949 29.3981L6.27344 25.6278C6.46719 25.3917 6.4329 25.0431 6.19674 24.8493C5.96058 24.6555 5.6121 24.6898 5.4182 24.926L2.32425 28.6963C1.06528 30.2306 0.810312 32.298 1.65892 34.092C2.5073 35.8857 4.26713 37 6.25147 37H18.7409C20.7253 37 22.485 35.8857 23.3335 34.092C24.182 32.2981 23.927 30.2306 22.668 28.6963Z" fill="#777777"/>
<path d="M20.7361 28.086C20.8454 28.2193 21.0041 28.2882 21.164 28.2882C21.2875 28.2882 21.4117 28.2471 21.5145 28.1627C21.7507 27.9689 21.785 27.6203 21.5912 27.3842L19.574 24.926C19.3802 24.6897 19.0316 24.6555 18.7955 24.8493C18.5593 25.0431 18.525 25.3917 18.7188 25.6278L20.7361 28.086Z" fill="#777777"/>
</svg>
