<svg width="25" height="37" viewBox="0 0 25 37" fill="none" xmlns="http://www.w3.org/2000/svg">
<path d="M15.486 6.01924C16.6572 4.83388 18.7168 3.48242 21.955 3.61835C22.4164 5.91909 21.5869 8.32986 19.7807 9.8522C18.4035 11.0131 17.4936 11.0983 16.3416 11.2064C15.8591 11.2516 15.3121 11.3029 14.6999 11.4399C14.4018 11.5066 14.2143 11.8024 14.281 12.1005C14.3386 12.358 14.567 12.533 14.8202 12.5329C14.8602 12.5329 14.9008 12.5286 14.9416 12.5194C15.4851 12.3978 15.973 12.352 16.4448 12.3078C17.6825 12.1917 18.8516 12.0821 20.4936 10.6981C22.7267 8.81582 23.6849 5.77409 22.9344 2.94904C22.8742 2.72202 22.677 2.55785 22.4429 2.53956C19.4049 2.30244 16.6549 3.26212 14.699 5.24166C14.4843 5.45901 14.4864 5.80919 14.7036 6.02389C14.9211 6.23873 15.2712 6.23659 15.486 6.01924Z" fill="#F8F8F8"/>
<path d="M2.1398 5.65998C1.64403 4.21272 1.55906 2.67429 1.88992 1.18942C4.53745 0.727796 8.4421 2.29572 8.48274 2.31224C8.72199 2.40959 8.99672 2.32847 9.14475 2.11672L9.46402 1.65982C9.7971 1.91242 10.1981 2.23443 10.4073 2.41077C12.3428 4.04227 14.0409 7.20533 13.0083 11.0766C12.1923 9.22101 11.0156 6.79829 7.72544 5.18715C7.45115 5.05277 7.11985 5.16627 6.9854 5.44064C6.85102 5.715 6.96452 6.04637 7.23896 6.18068C10.1988 7.63008 11.2307 9.77888 12.0132 11.5616C10.8291 11.1744 9.86819 11.0834 8.99473 11.0015C7.53073 10.8642 6.37435 10.7558 4.6199 9.27699C3.90051 8.67059 3.29655 7.95577 2.82489 7.15238C2.67016 6.88886 2.33126 6.8008 2.06781 6.95538C1.80437 7.11004 1.71616 7.44901 1.87089 7.71246C2.40627 8.62442 3.09129 9.43534 3.90693 10.1229C5.92622 11.825 7.36663 11.96 8.89148 12.103C9.95323 12.2026 11.0491 12.3057 12.5288 12.9369V18.5549C12.5288 18.8604 12.7764 19.1081 13.0819 19.1081C13.3874 19.1081 13.6351 18.8604 13.6351 18.5549V12.6812C14.4714 10.5965 14.6429 8.42492 14.1277 6.39323C13.6507 4.51215 12.5827 2.79739 11.1204 1.56482C10.847 1.33442 10.0017 0.65478 9.62768 0.417368C9.37781 0.258725 9.04732 0.324881 8.87776 0.56753L8.48524 1.12931C7.28933 0.692763 3.79741 -0.441269 1.30078 0.183865C1.10555 0.232763 0.952221 0.383884 0.90052 0.578445C0.423114 2.37567 0.489714 4.25682 1.09316 6.01849C1.19214 6.30746 1.50655 6.46168 1.79574 6.36255C2.08478 6.26358 2.23878 5.94902 2.1398 5.65998Z" fill="#F8F8F8"/>
<path d="M15.1374 9.88401C15.2779 9.88401 15.4185 9.83083 15.5263 9.72426C17.2965 7.97416 19.6333 6.58502 19.6566 6.57115C19.9195 6.41575 20.0069 6.07656 19.8515 5.81356C19.6961 5.55055 19.3569 5.46323 19.094 5.61855C18.9938 5.6777 16.6185 7.08875 14.7484 8.93745C14.5312 9.15222 14.5291 9.50248 14.7439 9.71968C14.8522 9.82921 14.9948 9.88401 15.1374 9.88401Z" fill="#F8F8F8"/>
<path d="M20.7149 21.8741C20.7149 20.593 19.6728 19.5509 18.3918 19.5509H7.77183C6.49088 19.5509 5.44867 20.593 5.44867 21.8741C5.44867 23.155 6.4908 24.1972 7.77183 24.1972H18.3918C19.6727 24.1971 20.7149 23.155 20.7149 21.8741ZM18.3918 23.0908H7.77183C7.10089 23.0908 6.55497 22.545 6.55497 21.874C6.55497 21.203 7.10082 20.6571 7.77183 20.6571H18.3918C19.0627 20.6571 19.6086 21.203 19.6086 21.874C19.6086 22.545 19.0627 23.0908 18.3918 23.0908Z" fill="#F8F8F8"/>
<path d="M23.2537 28.6963C23.0599 28.4601 22.7113 28.4258 22.4752 28.6196C22.239 28.8133 22.2047 29.162 22.3984 29.3981C23.3833 30.5983 23.5828 32.2157 22.919 33.6189C22.2553 35.022 20.8788 35.8937 19.3265 35.8937H6.83708C5.28487 35.8937 3.90826 35.0221 3.24463 33.619C2.58085 32.2157 2.78027 30.5983 3.76518 29.3981L6.85913 25.6278C7.05288 25.3917 7.01859 25.0431 6.78243 24.8493C6.54627 24.6555 6.19778 24.6898 6.00389 24.926L2.90993 28.6963C1.65096 30.2306 1.396 32.298 2.2446 34.092C3.09299 35.8857 4.85282 37 6.83715 37H19.3265C21.311 37 23.0707 35.8858 23.9192 34.092C24.7677 32.2981 24.5127 30.2306 23.2537 28.6963Z" fill="#F8F8F8"/>
<path d="M21.3218 28.086C21.4312 28.2193 21.5898 28.2882 21.7497 28.2882C21.8732 28.2882 21.9974 28.2471 22.1002 28.1627C22.3364 27.9689 22.3707 27.6203 22.1769 27.3842L20.1597 24.926C19.9659 24.6897 19.6173 24.6555 19.3812 24.8493C19.145 25.0431 19.1107 25.3916 19.3045 25.6278L21.3218 28.086Z" fill="#F8F8F8"/>
</svg>
