<svg width="29" height="43" viewBox="0 0 29 43" fill="none" xmlns="http://www.w3.org/2000/svg">
<path d="M27.8854 15.0091C27.2842 14.3057 26.1547 13.1886 24.6772 12.6475C25.9338 11.7006 26.69 10.3032 27.0607 9.45564C27.2238 9.08286 27.2201 8.65716 27.0508 8.28766C26.8813 7.91816 26.5611 7.63768 26.1721 7.51813C25.2877 7.24622 23.7356 6.90776 22.198 7.24226C22.7518 5.76957 22.642 4.18465 22.5012 3.27015C22.4393 2.86801 22.2082 2.51046 21.8671 2.2892C21.5261 2.06802 21.1054 2.00265 20.7129 2.11C19.8205 2.35406 18.3284 2.89973 17.2092 4.00562C16.8881 2.46537 15.9465 1.18575 15.3378 0.4889C15.0701 0.182415 14.6834 0.00431167 14.277 0.000105171C13.872 -0.0048585 13.4803 0.166094 13.2063 0.466942C12.5834 1.15109 11.6156 2.41102 11.2628 3.94437C10.1667 2.8156 8.68606 2.23939 7.79883 1.97699C7.40863 1.86165 6.98664 1.91827 6.6412 2.13238C6.29576 2.34649 6.05734 2.69925 5.98709 3.10004C5.8275 4.01142 5.68506 5.59374 6.20844 7.07754C4.6782 6.7114 3.11935 7.01781 2.22951 7.27146C1.83822 7.38301 1.51222 7.65686 1.33521 8.02274C1.1582 8.38862 1.14575 8.81415 1.30114 9.19021C1.65448 10.0453 2.3817 11.4578 3.61841 12.4306C2.13015 12.941 0.977741 14.0347 0.362162 14.7255C0.0914323 15.0293 -0.0371183 15.4352 0.00932141 15.839C0.0558453 16.2427 0.273237 16.6087 0.605887 16.8432C1.3623 17.3761 2.73311 18.179 4.2986 18.3379C3.31496 19.5662 2.92754 21.1073 2.7777 22.0204C2.71183 22.4219 2.82061 22.8335 3.07611 23.1496C3.33161 23.4656 3.71129 23.6582 4.11772 23.678C4.26234 23.685 4.42303 23.6896 4.59684 23.6896C5.53413 23.6896 6.84976 23.5567 8.03666 22.9627C7.86394 24.5267 8.36216 26.0354 8.72468 26.8867C8.8841 27.2611 9.19639 27.5505 9.58146 27.6805C9.72986 27.7306 9.88407 27.7554 10.0377 27.7554C10.2828 27.7554 10.5267 27.6924 10.744 27.5689C11.4544 27.1653 12.5595 26.4183 13.3668 25.3209V34.7285C12.9448 34.3477 12.4881 34.0029 11.997 33.6956C12.044 32.9919 11.8154 32.1043 11.3779 31.3425C10.7376 30.2273 9.71278 29.4699 8.4924 29.2097C6.5691 28.7996 4.20934 29.6121 2.97389 30.1328C2.65302 30.2681 2.40652 30.5354 2.29774 30.8663C2.1893 31.1963 2.22875 31.5567 2.40618 31.8548C3.46058 33.6271 4.60938 34.899 5.8206 35.6351C6.63565 36.1305 7.49133 36.3845 8.32986 36.3845C8.55835 36.3845 8.78567 36.3655 9.01055 36.3276C10.0995 36.1436 10.9981 35.5404 11.5128 34.8848C12.2184 35.3512 12.8375 35.9067 13.3667 36.5483V42.3691C13.3667 42.7176 13.6492 43.0001 13.9977 43.0001C14.3462 43.0001 14.6287 42.7176 14.6287 42.3691V38.583C15.1598 37.9372 15.7817 37.3785 16.491 36.9096C17.0057 37.5653 17.9043 38.1684 18.9932 38.3524C19.218 38.3905 19.4453 38.4093 19.6739 38.4093C20.5123 38.4093 21.3681 38.1553 22.1831 37.66C23.3944 36.9239 24.5432 35.6519 25.5975 33.8797C25.775 33.5815 25.8145 33.2212 25.7061 32.8912C25.5973 32.5603 25.3509 32.2931 25.0299 32.1578C23.9239 31.6916 21.7933 30.9425 19.9498 31.1623C19.6038 31.2037 19.3567 31.5176 19.398 31.8637C19.4393 32.2097 19.7538 32.4569 20.0993 32.4155C21.672 32.2279 23.6402 32.9467 24.4773 33.2945C22.9721 35.8012 21.2875 37.1482 19.6792 37.148C19.5199 37.148 19.3611 37.1347 19.2035 37.1081C18.4965 36.9887 17.9455 36.6154 17.6174 36.2764C18.2413 35.9792 18.9163 35.7365 19.6433 35.5523C19.9811 35.4667 20.1855 35.1234 20.0999 34.7857C20.0143 34.4479 19.6712 34.2434 19.3332 34.3291C18.6201 34.5098 17.9504 34.7417 17.3232 35.0216C17.45 34.4412 17.7784 33.7294 18.3456 33.2043C18.6013 32.9675 18.6167 32.5683 18.3799 32.3126C18.1432 32.0569 17.7439 32.0414 17.4882 32.2782C16.7865 32.9279 16.4239 33.6863 16.2432 34.2082C16.0597 34.7382 15.9797 35.2707 16.009 35.7192C15.5138 36.029 15.0537 36.3767 14.6288 36.7611V25.2817C15.4156 26.4237 16.528 27.2113 17.2407 27.6359C17.4642 27.769 17.7176 27.8373 17.9726 27.8373C18.1165 27.8373 18.261 27.8156 18.4008 27.7715C18.7885 27.6493 19.1067 27.3665 19.2737 26.9955C19.6536 26.1521 20.1826 24.6547 20.0426 23.0881C21.2218 23.7112 22.5446 23.8735 23.5415 23.8856C23.5485 23.8857 23.5555 23.8857 23.5624 23.8857C24.0707 23.8857 24.5489 23.6634 24.8774 23.2738C25.2104 22.8788 25.3478 22.3611 25.2544 21.8535C25.0738 20.8727 24.6883 19.5967 23.874 18.5397C25.4427 18.4133 26.8303 17.6385 27.5977 17.1212C27.9351 16.8937 28.16 16.5323 28.2148 16.1296C28.27 15.7268 28.1498 15.3184 27.8854 15.0091ZM8.80056 35.0833C7.05251 35.3788 5.18113 34.0247 3.52679 31.2696C4.45046 30.8856 6.62193 30.1012 8.22949 30.4439C9.72591 30.763 10.4765 32.0558 10.6826 32.9973C10.0549 32.7172 9.38451 32.485 8.67075 32.3041C8.3328 32.2184 7.98972 32.423 7.90416 32.7607C7.81851 33.0985 8.02295 33.4418 8.36082 33.5273C9.08778 33.7116 9.76284 33.9543 10.3867 34.2514C10.0586 34.5906 9.50759 34.9638 8.80056 35.0833ZM14.4485 21.5195C14.3405 21.5243 14.2337 21.5265 14.1267 21.5265C10.2398 21.5262 6.9953 18.4522 6.82477 14.5317C6.73988 12.5803 7.41991 10.7125 8.73974 9.27266C10.0596 7.83277 11.8611 6.99299 13.8126 6.90802C15.7641 6.8233 17.6319 7.50324 19.0717 8.82298C20.5117 10.1428 21.3514 11.9444 21.4364 13.8959C21.5213 15.8472 20.8412 17.715 19.5214 19.155C18.2015 20.5949 16.3999 21.4347 14.4485 21.5195ZM25.8011 8.72438C25.8603 8.74255 25.8895 8.7831 25.9036 8.81381C25.9177 8.84452 25.9293 8.89306 25.9045 8.94985C25.52 9.82892 24.6569 11.4037 23.1976 12.073C22.9784 12.1735 22.7426 12.2546 22.4941 12.315C22.2332 11.1543 21.735 10.068 21.0262 9.1139C21.2342 8.96508 21.449 8.83914 21.6682 8.7386C23.1275 8.06926 24.8839 8.44229 25.8011 8.72438ZM21.0458 3.32728C21.1057 3.31104 21.1519 3.32946 21.1803 3.34789C21.2087 3.36631 21.2446 3.40106 21.2539 3.46231C21.4 4.4107 21.5145 6.20275 20.6408 7.54951C20.509 7.75251 20.3526 7.94736 20.1745 8.13211C20.0927 8.05101 20.0097 7.971 19.9243 7.89276C19.123 7.1583 18.2086 6.59312 17.2246 6.21226C17.3202 5.97619 17.4324 5.75451 17.5632 5.55293C18.4371 4.2061 20.1202 3.58034 21.0458 3.32728ZM14.1394 1.31665C14.1811 1.27089 14.2326 1.26054 14.264 1.26205C14.2978 1.26239 14.3467 1.27257 14.3874 1.31918C15.0187 2.04186 16.0753 3.49385 16.0588 5.09914C16.0564 5.34 16.0288 5.58709 15.9778 5.83729C15.2581 5.67989 14.5134 5.61435 13.7578 5.64733C13.3165 5.66651 12.882 5.71901 12.4565 5.80272C12.4104 5.55092 12.388 5.30282 12.3905 5.06136C12.407 3.45608 13.4932 2.02612 14.1394 1.31665ZM7.23019 3.31785C7.24088 3.25686 7.27739 3.22279 7.30616 3.20504C7.33485 3.1872 7.38163 3.16953 7.44102 3.1872C8.36124 3.45928 10.0311 4.11953 10.877 5.48403C11.0037 5.68838 11.1111 5.91276 11.202 6.15093C10.0955 6.55131 9.08038 7.17917 8.21359 8.00793C8.03961 7.81982 7.88632 7.62228 7.75895 7.41683C6.91319 6.05241 7.06454 4.26305 7.23019 3.31785ZM2.46743 8.70848C2.44379 8.65127 2.45641 8.60298 2.47113 8.57244C2.48585 8.54199 2.51597 8.50211 2.57545 8.48512C3.49827 8.22204 5.26214 7.8851 6.70716 8.58439C6.9248 8.68972 7.13748 8.82063 7.34284 8.97416C6.60915 9.92147 6.08973 10.997 5.80655 12.1414C5.56005 12.0759 5.326 11.9914 5.10945 11.8867C3.66435 11.1875 2.8339 9.5953 2.46743 8.70848ZM1.26303 15.6948C1.25916 15.6611 1.26319 15.6113 1.30433 15.5652C1.94271 14.8488 3.25177 13.6196 4.84662 13.436C5.08673 13.4083 5.33601 13.4049 5.59134 13.4246C5.55677 13.8078 5.54692 14.1957 5.56392 14.5866C5.59942 15.4014 5.7485 16.1847 5.99449 16.9225C5.75001 16.9998 5.50629 17.0528 5.2661 17.0804C3.67057 17.2636 2.11711 16.3642 1.33277 15.8117C1.28212 15.7759 1.2669 15.7284 1.26303 15.6948ZM4.17905 22.4176C4.11722 22.4146 4.07894 22.3826 4.05765 22.3563C4.03645 22.33 4.01315 22.2858 4.02316 22.2247C4.17855 21.2778 4.62562 19.5386 5.8741 18.5294C6.06247 18.3771 6.27145 18.2402 6.49826 18.1198C7.04275 19.1798 7.80093 20.1095 8.71315 20.8546C8.54733 21.052 8.36931 21.2295 8.18027 21.3823C6.93178 22.3915 5.13797 22.4644 4.17905 22.4176ZM10.1209 26.4718C10.0671 26.5023 10.0176 26.4959 9.98553 26.4851C9.95348 26.4743 9.91015 26.4494 9.88592 26.3924C9.50995 25.5096 8.95595 23.8015 9.46965 22.2805C9.5473 22.0507 9.65179 21.8226 9.77916 21.5991C10.7806 22.1913 11.9102 22.5849 13.1109 22.728C13.0766 22.9817 13.0225 23.2256 12.9452 23.4544C12.4315 24.9754 10.9552 25.9978 10.1209 26.4718ZM18.1234 26.4773C18.098 26.5338 18.0542 26.5577 18.0219 26.5678C17.9897 26.578 17.9399 26.5834 17.8869 26.5518C17.0625 26.0607 15.6075 25.0082 15.1252 23.4769C15.0526 23.2463 15.0031 23.0013 14.9741 22.7467C16.1693 22.6301 17.3079 22.27 18.3326 21.6929C18.4539 21.9172 18.5519 22.1454 18.6242 22.3748C19.1066 23.906 18.5175 25.6024 18.1234 26.4773ZM23.913 22.4604C23.8613 22.5217 23.7475 22.6237 23.5631 22.6237C23.5611 22.6237 23.5591 22.6237 23.557 22.6237C22.4943 22.6109 21.0027 22.4061 19.932 21.5035C19.7474 21.3478 19.5739 21.1691 19.4131 20.9699C19.7814 20.6807 20.1289 20.3597 20.4516 20.0077C20.9381 19.477 21.3503 18.8967 21.684 18.2794C21.9066 18.4038 22.1124 18.5435 22.2965 18.6987C23.3673 19.6015 23.8214 21.0369 24.0139 22.0821C24.0478 22.2669 23.9652 22.3984 23.913 22.4604ZM26.9648 15.9595C26.9603 15.993 26.944 16.0402 26.8927 16.0749C26.0971 16.6113 24.5247 17.4788 22.9341 17.2624C22.6958 17.23 22.4543 17.1711 22.213 17.0896C22.5784 16.062 22.7459 14.9634 22.6971 13.841C22.6936 13.7606 22.6887 13.6804 22.6831 13.6004C22.939 13.5859 23.1889 13.5948 23.4286 13.6274C25.0193 13.8438 26.3028 15.0997 26.9262 15.8291C26.9663 15.876 26.9694 15.9259 26.9648 15.9595Z" fill="#F8F8F8"/>
</svg>
