<svg width="27" height="40" viewBox="0 0 27 40" fill="none" xmlns="http://www.w3.org/2000/svg">
<path d="M25.94 13.9619C25.3807 13.3077 24.33 12.2684 22.9556 11.7651C24.1245 10.8842 24.8279 9.58442 25.1728 8.79595C25.3245 8.44917 25.3211 8.05317 25.1635 7.70946C25.0058 7.36574 24.708 7.10482 24.3461 6.99361C23.5234 6.74067 22.0796 6.42583 20.6493 6.73699C21.1645 5.36704 21.0624 3.89269 20.9314 3.042C20.8738 2.66792 20.6588 2.33531 20.3415 2.12949C20.0242 1.92374 19.6329 1.86293 19.2679 1.96279C18.4377 2.18982 17.0496 2.69742 16.0085 3.72616C15.7099 2.29336 14.8339 1.10302 14.2677 0.454791C14.0187 0.169688 13.659 0.00401086 13.2809 9.78338e-05C12.9042 -0.00451953 12.5398 0.154506 12.2849 0.434365C11.7055 1.07078 10.8052 2.24281 10.477 3.66918C9.45737 2.61916 8.08006 2.08316 7.25473 1.83906C6.89175 1.73177 6.4992 1.78444 6.17786 1.98361C5.85652 2.18278 5.63473 2.51093 5.56939 2.88376C5.42093 3.73156 5.28843 5.20348 5.77529 6.58376C4.35181 6.24317 2.90172 6.52819 2.07396 6.76415C1.70997 6.86792 1.40672 7.12266 1.24206 7.46301C1.0774 7.80337 1.06581 8.19921 1.21036 8.54903C1.53905 9.34447 2.21554 10.6585 3.36596 11.5633C1.98154 12.0381 0.909527 13.0555 0.336895 13.6982C0.0850533 13.9808 -0.0345287 14.3583 0.00867109 14.734C0.0519491 15.1095 0.254174 15.45 0.563615 15.6681C1.26725 16.1638 2.54243 16.9107 3.9987 17.0585C3.08368 18.2011 2.72329 19.6347 2.58391 20.4841C2.52263 20.8576 2.62382 21.2404 2.8615 21.5345C3.09918 21.8285 3.45236 22.0076 3.83044 22.026C3.96497 22.0325 4.11445 22.0368 4.27613 22.0368C5.14803 22.0368 6.37187 21.9133 7.47597 21.3607C7.3153 22.8155 7.77876 24.219 8.11598 25.0109C8.26429 25.3591 8.55479 25.6284 8.91298 25.7493C9.05104 25.7959 9.19449 25.819 9.33739 25.819C9.56536 25.819 9.79224 25.7604 9.99447 25.6455C10.6552 25.2701 11.6832 24.5751 12.4342 23.5543V32.3056C12.0417 31.9513 11.6169 31.6306 11.16 31.3447C11.2037 30.6902 10.991 29.8644 10.5841 29.1558C9.98844 28.1184 9.03515 27.4139 7.8999 27.1718C6.11079 26.7903 3.91567 27.5461 2.76641 28.0306C2.46793 28.1564 2.23862 28.405 2.13743 28.7128C2.03656 29.0198 2.07326 29.355 2.23831 29.6324C3.21915 31.281 4.2878 32.4642 5.41451 33.1489C6.1727 33.6097 6.96868 33.846 7.7487 33.846C7.96126 33.846 8.17272 33.8284 8.38191 33.7931C9.39491 33.622 10.2308 33.0608 10.7096 32.4509C11.366 32.8848 11.9418 33.4016 12.4342 33.9985V39.4131C12.4342 39.7373 12.697 40.0001 13.0211 40.0001C13.3453 40.0001 13.6081 39.7373 13.6081 39.4131V35.8912C14.1021 35.2904 14.6806 34.7707 15.3404 34.3345C15.8192 34.9445 16.6551 35.5055 17.6681 35.6767C17.8772 35.7121 18.0886 35.7296 18.3013 35.7296C19.0812 35.7296 19.8773 35.4933 20.6355 35.0326C21.7623 34.3478 22.8309 33.1646 23.8117 31.516C23.9767 31.2386 24.0135 30.9034 23.9126 30.5965C23.8114 30.2887 23.5822 30.0401 23.2836 29.9142C22.2548 29.4806 20.2728 28.7837 18.558 28.9882C18.2361 29.0267 18.0062 29.3187 18.0446 29.6406C18.0831 29.9625 18.3756 30.1924 18.697 30.1539C20.16 29.9795 21.9909 30.6481 22.7695 30.9716C21.3694 33.3034 19.8023 34.5565 18.3062 34.5563C18.158 34.5563 18.0103 34.5439 17.8637 34.5192C17.206 34.4081 16.6935 34.0608 16.3883 33.7455C16.9686 33.469 17.5966 33.2433 18.2729 33.0719C18.5871 32.9923 18.7772 32.673 18.6976 32.3588C18.618 32.0445 18.2988 31.8544 17.9844 31.934C17.3211 32.1021 16.698 32.3179 16.1146 32.5782C16.2325 32.0384 16.5381 31.3762 17.0657 30.8877C17.3035 30.6675 17.3178 30.2961 17.0976 30.0582C16.8774 29.8204 16.506 29.806 16.2681 30.0263C15.6154 30.6306 15.2781 31.3361 15.11 31.8216C14.9393 32.3146 14.8648 32.81 14.8921 33.2272C14.4314 33.5154 14.0034 33.8388 13.6081 34.1964V23.5178C14.3401 24.5802 15.3749 25.3128 16.0379 25.7078C16.2458 25.8317 16.4815 25.8951 16.7187 25.8951C16.8526 25.8951 16.987 25.875 17.117 25.8339C17.4777 25.7203 17.7737 25.4572 17.9291 25.1121C18.2824 24.3275 18.7745 22.9346 18.6443 21.4773C19.7412 22.0569 20.9717 22.2079 21.8991 22.2192C21.9056 22.2193 21.9121 22.2193 21.9185 22.2193C22.3913 22.2193 22.8362 22.0125 23.1418 21.6501C23.4516 21.2826 23.5794 20.801 23.4924 20.3289C23.3245 19.4165 22.9658 18.2295 22.2083 17.2463C23.6677 17.1286 24.9584 16.4079 25.6723 15.9267C25.9861 15.7151 26.1954 15.3789 26.2463 15.0043C26.2977 14.6296 26.1858 14.2497 25.94 13.9619ZM8.18657 32.6356C6.56048 32.9105 4.81965 31.6509 3.28074 29.088C4.13996 28.7308 6.15994 28.0011 7.65534 28.3199C9.04736 28.6167 9.7456 29.8194 9.93734 30.6952C9.35344 30.4346 8.72978 30.2186 8.06582 30.0503C7.75144 29.9706 7.4323 30.1609 7.35271 30.4751C7.27304 30.7893 7.46321 31.1086 7.77751 31.1882C8.45375 31.3596 9.08172 31.5854 9.6621 31.8618C9.3568 32.1773 8.84427 32.5245 8.18657 32.6356ZM13.4404 20.0182C13.34 20.0226 13.2406 20.0247 13.1411 20.0247C9.52537 20.0244 6.50726 17.1648 6.34863 13.5179C6.26966 11.7026 6.90224 9.96516 8.12999 8.62573C9.35774 7.2863 11.0336 6.50511 12.8489 6.42606C14.6643 6.34725 16.4017 6.97975 17.7412 8.20743C19.0807 9.43518 19.8618 11.111 19.9408 12.9264C20.0198 14.7416 19.3872 16.4791 18.1595 17.8186C16.9316 19.158 15.2558 19.9392 13.4404 20.0182ZM24.001 8.1157C24.0561 8.13261 24.0833 8.17033 24.0964 8.1989C24.1095 8.22746 24.1203 8.27262 24.0972 8.32544C23.7395 9.14319 22.9366 10.6081 21.5792 11.2307C21.3753 11.3242 21.1559 11.3996 20.9248 11.4559C20.682 10.3761 20.2186 9.3656 19.5593 8.47805C19.7528 8.33961 19.9526 8.22245 20.1565 8.12893C21.5139 7.50629 23.1479 7.8533 24.001 8.1157ZM19.5775 3.09514C19.6332 3.08004 19.6762 3.09718 19.7026 3.11432C19.729 3.13145 19.7624 3.16378 19.7711 3.22075C19.9069 4.10298 20.0135 5.77001 19.2007 7.0228C19.0782 7.21164 18.9327 7.39289 18.767 7.56475C18.6909 7.48931 18.6137 7.41488 18.5342 7.3421C17.7888 6.65889 16.9383 6.13313 16.0229 5.77885C16.1118 5.55925 16.2162 5.35303 16.3379 5.16552C17.1508 3.91265 18.7165 3.33055 19.5775 3.09514ZM13.1529 1.2248C13.1917 1.18222 13.2396 1.1726 13.2688 1.174C13.3003 1.17432 13.3457 1.18379 13.3836 1.22714C13.9709 1.8994 14.9538 3.2501 14.9384 4.74338C14.9361 4.96744 14.9106 5.1973 14.863 5.43004C14.1936 5.28362 13.5008 5.22265 12.7979 5.25333C12.3874 5.27117 11.9832 5.32001 11.5875 5.39788C11.5446 5.16364 11.5238 4.93285 11.526 4.70825C11.5414 3.21496 12.5519 1.88477 13.1529 1.2248ZM6.72576 3.08638C6.7357 3.02964 6.76967 2.99794 6.79643 2.98143C6.82312 2.96484 6.86663 2.9484 6.92188 2.96484C7.7779 3.21793 9.33129 3.83212 10.1181 5.10143C10.236 5.29152 10.3359 5.50024 10.4204 5.7218C9.39116 6.09424 8.44687 6.6783 7.64055 7.44924C7.47871 7.27425 7.33612 7.09049 7.21763 6.89938C6.43088 5.63015 6.57167 3.96563 6.72576 3.08638ZM2.29528 8.10091C2.27329 8.0477 2.28503 8.00278 2.29873 7.97437C2.31242 7.94604 2.34044 7.90894 2.39577 7.89313C3.25421 7.64841 4.89502 7.33498 6.23922 7.98548C6.44168 8.08346 6.63952 8.20524 6.83055 8.34806C6.14805 9.22927 5.66487 10.2298 5.40144 11.2943C5.17214 11.2334 4.95442 11.1548 4.75297 11.0574C3.4087 10.4069 2.63619 8.92586 2.29528 8.10091ZM1.17491 14.5998C1.17131 14.5685 1.17506 14.5222 1.21333 14.4793C1.80717 13.8128 3.02491 12.6694 4.50849 12.4986C4.73184 12.4729 4.96373 12.4696 5.20125 12.488C5.16909 12.8444 5.15993 13.2053 5.17574 13.569C5.20876 14.3268 5.34744 15.0555 5.57627 15.7419C5.34885 15.8138 5.12213 15.8631 4.8987 15.8888C3.41449 16.0591 1.96941 15.2225 1.23979 14.7085C1.19267 14.6753 1.17851 14.631 1.17491 14.5998ZM3.88749 20.8536C3.82997 20.8508 3.79436 20.8211 3.77456 20.7966C3.75484 20.7721 3.73316 20.731 3.74248 20.6742C3.88702 19.7933 4.3029 18.1755 5.46428 17.2366C5.63951 17.095 5.83391 16.9676 6.0449 16.8556C6.5514 17.8417 7.25668 18.7065 8.10526 19.3996C7.95101 19.5833 7.78541 19.7484 7.60956 19.8905C6.44817 20.8293 4.7795 20.8971 3.88749 20.8536ZM9.41479 24.6249C9.36471 24.6533 9.31869 24.6474 9.28887 24.6373C9.25905 24.6272 9.21875 24.6041 9.19621 24.5511C8.84646 23.7298 8.33112 22.1409 8.80898 20.726C8.88121 20.5122 8.97841 20.3001 9.0969 20.0922C10.0285 20.6431 11.0792 21.0092 12.1962 21.1423C12.1642 21.3783 12.114 21.6052 12.0421 21.8181C11.5642 23.233 10.1909 24.184 9.41479 24.6249ZM16.859 24.6301C16.8354 24.6826 16.7946 24.7049 16.7645 24.7143C16.7346 24.7237 16.6883 24.7288 16.6389 24.6993C15.8721 24.2425 14.5186 23.2634 14.07 21.839C14.0024 21.6245 13.9564 21.3966 13.9294 21.1598C15.0412 21.0512 16.1003 20.7163 17.0536 20.1795C17.1664 20.3881 17.2576 20.6004 17.3248 20.8138C17.7736 22.2381 17.2256 23.8162 16.859 24.6301ZM22.2446 20.8934C22.1966 20.9504 22.0907 21.0453 21.9192 21.0453C21.9173 21.0453 21.9154 21.0453 21.9135 21.0453C20.9249 21.0334 19.5374 20.8429 18.5414 20.0032C18.3697 19.8584 18.2083 19.6921 18.0587 19.5069C18.4013 19.2378 18.7246 18.9393 19.0248 18.6118C19.4773 18.1182 19.8608 17.5783 20.1711 17.0041C20.3782 17.1198 20.5697 17.2498 20.741 17.3942C21.7371 18.2339 22.1594 19.5692 22.3385 20.5415C22.37 20.7134 22.2933 20.8358 22.2446 20.8934ZM25.0835 14.846C25.0793 14.8772 25.0642 14.9212 25.0165 14.9534C24.2764 15.4524 22.8137 16.2593 21.3341 16.058C21.1124 16.0279 20.8878 15.9731 20.6632 15.8973C21.0032 14.9414 21.159 13.9194 21.1136 12.8753C21.1103 12.8005 21.1058 12.7259 21.1006 12.6515C21.3386 12.6381 21.5711 12.6464 21.794 12.6766C23.2738 12.8779 24.4677 14.0462 25.0476 14.7247C25.085 14.7684 25.0878 14.8148 25.0835 14.846Z" fill="#777777"/>
</svg>
