<svg width="18" height="25" viewBox="0 0 18 25" fill="none" xmlns="http://www.w3.org/2000/svg">
<path d="M8.73337 1.46495L8.73985 1.45534L8.74587 1.44543C9.06498 0.920917 9.2796 0.853669 9.34082 0.852796C9.39065 0.852086 9.60053 0.899124 9.91754 1.4388L9.92537 1.45213L9.93401 1.46495C10.0137 1.58324 10.0944 1.70299 10.1761 1.8241C11.6573 4.02115 13.4404 6.66616 14.8822 9.18629C15.6425 10.5154 16.3015 11.7988 16.7692 12.9543C17.2407 14.1192 17.5 15.1119 17.5 15.8724C17.5 18.1107 16.5807 20.1664 15.1094 21.6347C13.6381 23.103 11.5776 24.0208 9.33369 24.0208C7.08974 24.0208 5.02929 23.103 3.558 21.6347C2.08672 20.1664 1.16737 18.1107 1.16737 15.8724C1.16737 15.1222 1.42633 14.1348 1.89808 12.971C2.36586 11.817 3.02497 10.5322 3.78539 9.20056C5.25793 6.62191 7.08686 3.9081 8.58576 1.68398C8.63533 1.61043 8.68454 1.53741 8.73337 1.46495Z" stroke="#F8F8F8"/>
</svg>
