<svg width="29" height="29" viewBox="0 0 29 29" fill="none" xmlns="http://www.w3.org/2000/svg">
<path d="M28.2682 14.2363L27.9247 12.8624C27.7362 12.108 27.6406 11.3313 27.6406 10.5542V9.77209C27.6406 9.13092 27.1191 8.60938 26.4779 8.60938C26.2672 8.60938 26.0601 8.66692 25.8798 8.77522L25.1697 9.2007C24.2911 9.72814 23.3382 10.1079 22.3382 10.3299L21.6625 10.4799C18.9787 11.0766 16.6813 12.7328 15.2649 15.0646C13.6277 13.292 11.4695 11.9833 8.97777 11.3852L8.36106 11.2375C8.13722 11.184 7.91836 11.1188 7.70312 11.044V6.79688H9.0625C11.8107 6.79688 14.0469 4.5607 14.0469 1.8125V0.453125H11.7812C9.57589 0.453125 7.70312 1.89452 7.04836 3.88373C6.18923 2.37845 4.57203 1.35938 2.71875 1.35938H0.453125V2.71875C0.453125 5.46695 2.6893 7.70312 5.4375 7.70312H6.79688V10.6421C6.47561 10.4735 6.16341 10.2864 5.86888 10.0662L5.41892 9.72859C4.98936 9.40597 4.32961 9.4762 3.97844 9.8822C3.77634 10.1151 3.68572 10.4237 3.72922 10.7295L3.74689 10.8519C3.96167 12.3549 3.88373 13.8643 3.51534 15.3374C3.28742 16.2472 3.17188 17.1857 3.17188 18.125C3.17188 23.872 7.84722 28.5469 13.5938 28.5469C15.5259 28.5469 17.2011 27.4394 18.028 25.8281H19.2179C24.3618 25.8281 28.5469 21.6431 28.5469 16.4987C28.5469 15.7366 28.4531 14.9753 28.2682 14.2363ZM11.7812 1.35938H13.1406V1.8125C13.1406 4.06136 11.3109 5.89062 9.0625 5.89062H8.03073L8.08828 5.78958C8.88986 4.38716 10.2628 3.43106 11.8556 3.16553L11.7065 2.27152C10.1305 2.53387 8.74305 3.38031 7.78424 4.62641C8.16169 2.76497 9.81016 1.35938 11.7812 1.35938ZM1.35938 2.71875V2.26562H2.71875C4.68984 2.26562 6.33831 3.67122 6.71531 5.53311C5.7565 4.28702 4.36903 3.44058 2.79306 3.17822L2.64398 4.07178C4.23672 4.33731 5.60969 5.29341 6.41127 6.69583L6.46927 6.79688H5.4375C3.18909 6.79688 1.35938 4.96761 1.35938 2.71875ZM17.5133 24.6758C17.2029 23.1212 16.4421 21.6915 15.2948 20.5442L15.2721 20.5216L14.6559 21.1868C15.9808 22.5122 16.7203 24.2626 16.7588 26.1299C16.0098 27.0507 14.8698 27.6406 13.5938 27.6406C8.34656 27.6406 4.07812 23.3717 4.07812 18.125C4.07812 17.2595 4.18461 16.3959 4.39441 15.5567C4.79134 13.9694 4.87517 12.3431 4.64363 10.7227L4.62595 10.6004C4.61734 10.5388 4.64544 10.4962 4.66311 10.4758C4.68078 10.4554 4.71884 10.4219 4.78092 10.4219C4.81491 10.4219 4.84753 10.4327 4.87517 10.4531L5.32558 10.7907C5.78595 11.1355 6.27941 11.4201 6.79733 11.6521V13.1406V13.5938V15.1797C6.79733 15.747 6.52636 16.2889 6.07233 16.6297C5.39128 17.1404 4.98483 17.9537 4.98483 18.8047V19.4844H5.89108V18.8047C5.89108 18.2374 6.16205 17.6954 6.61608 17.3547C6.757 17.2491 6.88342 17.1277 6.99942 16.9981C7.22009 18.4721 8.11003 19.7852 9.40642 20.5261C10.1115 20.9294 10.6416 21.5755 10.8986 22.3468L11.7581 22.0599C11.4305 21.0776 10.7549 20.2538 9.85592 19.7395C8.77341 19.121 8.03481 18.0135 7.87848 16.777C8.38055 17.3588 9.0693 17.7548 9.84052 17.8835C10.546 18.0013 11.1251 18.4957 11.3512 19.1749L12.2108 18.8881C12.0413 18.3792 11.7355 17.9419 11.3404 17.6116L12.0019 17.347C12.6585 17.0846 13.4311 17.2437 13.9295 17.7426L14.1796 17.9927L14.8204 17.352L14.5707 17.1018C13.819 16.3497 12.6553 16.11 11.6657 16.5055L10.281 17.0592C10.1849 17.0325 10.0888 17.0067 9.98959 16.9899C9.29087 16.8735 8.68142 16.4584 8.31756 15.8512L7.70312 14.8276V13.5938V13.1406V11.9874C7.8513 12.0327 7.99766 12.0821 8.14945 12.1188L8.76661 12.267C14.0097 13.5253 17.6719 18.1703 17.6719 23.5625C17.6719 23.949 17.6143 24.3215 17.5133 24.6758ZM19.2179 24.9219H18.3851C18.5079 24.4891 18.5781 24.0342 18.5781 23.5625C18.5781 20.6516 17.5876 17.9428 15.8893 15.7932C17.1621 13.5371 19.3199 11.9294 21.8588 11.3653L22.5344 11.2153C23.6296 10.972 24.6731 10.5555 25.6355 9.97827L26.3456 9.55278C26.5078 9.45581 26.7344 9.5845 26.7344 9.77209V10.5542C26.7344 11.4052 26.839 12.2557 27.0457 13.0817L27.3891 14.456C27.5559 15.123 27.6406 15.8104 27.6406 16.4987C27.6406 21.1433 23.862 24.9219 19.2179 24.9219Z" fill="#F8F8F8"/>
</svg>
