<svg width="37" height="37" viewBox="0 0 37 37" fill="none" xmlns="http://www.w3.org/2000/svg">
<path d="M18.4815 0C8.2695 0 0 8.288 0 18.5C0 28.712 8.2695 37 18.4815 37C28.712 37 37 28.712 37 18.5C37 8.288 28.712 0 18.4815 0ZM18.5 33.3C10.323 33.3 3.7 26.677 3.7 18.5C3.7 10.323 10.323 3.7 18.5 3.7C26.677 3.7 33.3 10.323 33.3 18.5C33.3 26.677 26.677 33.3 18.5 33.3ZM24.975 16.65C26.5105 16.65 27.75 15.4105 27.75 13.875C27.75 12.3395 26.5105 11.1 24.975 11.1C23.4395 11.1 22.2 12.3395 22.2 13.875C22.2 15.4105 23.4395 16.65 24.975 16.65ZM12.025 16.65C13.5605 16.65 14.8 15.4105 14.8 13.875C14.8 12.3395 13.5605 11.1 12.025 11.1C10.4895 11.1 9.25 12.3395 9.25 13.875C9.25 15.4105 10.4895 16.65 12.025 16.65ZM18.5 28.675C22.8105 28.675 26.4735 25.974 27.9535 22.2H9.0465C10.5265 25.974 14.1895 28.675 18.5 28.675Z" fill="#333333"/>
</svg>
